<?xml version="1.0" encoding="UTF-8"?>
<!DOCTYPE svg PUBLIC "-//W3C//DTD SVG 1.1//EN" "http://www.w3.org/Graphics/SVG/1.1/DTD/svg11.dtd">
<svg xmlns="http://www.w3.org/2000/svg" version="1.1" width="1082px" height="676px" style="shape-rendering:geometricPrecision; text-rendering:geometricPrecision; image-rendering:optimizeQuality; fill-rule:evenodd; clip-rule:evenodd" xmlns:xlink="http://www.w3.org/1999/xlink">
<g><path style="opacity:0.999" fill="#334684" d="M 104.5,-0.5 C 395.167,-0.5 685.833,-0.5 976.5,-0.5C 1023.99,7.48714 1056.83,33.8205 1075,78.5C 1077.67,86.8425 1079.83,95.1758 1081.5,103.5C 1081.5,259.5 1081.5,415.5 1081.5,571.5C 1072.34,622.499 1043.01,655.999 993.5,672C 987.685,673.129 982.019,674.295 976.5,675.5C 685.833,675.5 395.167,675.5 104.5,675.5C 64.7144,669.179 34.5477,648.846 14,614.5C 7.60283,601.778 2.7695,588.778 -0.5,575.5C -0.5,415.833 -0.5,256.167 -0.5,96.5C 2.86631,87.2489 6.36631,77.9156 10,68.5C 29.851,29.4741 61.351,6.4741 104.5,-0.5 Z"/></g>
<g><path style="opacity:1" fill="#fefefe" d="M 915.5,64.5 C 916.511,66.3716 917.345,68.3716 918,70.5C 918.333,92.1667 918.667,113.833 919,135.5C 919.383,136.056 919.883,136.389 920.5,136.5C 928.159,139.729 935.825,142.895 943.5,146C 947.649,147.737 951.983,148.737 956.5,149C 970.67,154.648 985.004,159.981 999.5,165C 1011.51,170.521 1021.18,178.688 1028.5,189.5C 1028.43,191.027 1029.09,192.027 1030.5,192.5C 1031.74,194.649 1032.74,196.982 1033.5,199.5C 1033.68,202.727 1034.34,205.727 1035.5,208.5C 1035.5,209.833 1035.5,211.167 1035.5,212.5C 1036.63,241.477 1036.8,270.477 1036,299.5C 1034.64,300.38 1033.14,300.714 1031.5,300.5C 1001.09,289.949 970.757,279.449 940.5,269C 931.246,264.44 921.58,261.273 911.5,259.5C 909.725,263.386 908.892,267.72 909,272.5C 908.604,279.674 908.104,286.841 907.5,294C 907.506,296.033 907.839,297.866 908.5,299.5C 909.058,300.79 910.058,301.623 911.5,302C 952.696,316.23 993.696,330.73 1034.5,345.5C 1035.49,426.459 1035.83,507.459 1035.5,588.5C 1035.41,592.857 1035.08,597.19 1034.5,601.5C 1030.79,612.068 1024.79,621.235 1016.5,629C 1004.51,637.805 991.176,643.638 976.5,646.5C 973.933,646.721 971.599,647.388 969.5,648.5C 895.833,648.5 822.167,648.5 748.5,648.5C 745.5,648.5 742.5,648.5 739.5,648.5C 731.701,646.933 723.701,645.766 715.5,645C 666.09,635.727 640.257,605.893 638,555.5C 637.333,444.5 637.333,333.5 638,222.5C 638.561,221.978 639.228,221.645 640,221.5C 670.457,231.312 700.957,240.979 731.5,250.5C 732.772,250.43 733.938,250.097 735,249.5C 736.311,235.868 736.811,222.201 736.5,208.5C 703.727,197.448 670.893,186.448 638,175.5C 637.333,151.5 637.333,127.5 638,103.5C 639.847,88.2945 647.681,77.4612 661.5,71C 678.79,65.4994 696.457,63.9994 714.5,66.5C 714.783,67.2891 715.283,67.9558 716,68.5C 716.333,85.8333 716.667,103.167 717,120.5C 717.198,122.382 717.698,124.048 718.5,125.5C 724.354,135.938 733.354,141.605 745.5,142.5C 748.024,143.8 750.691,143.8 753.5,142.5C 753.376,141.893 753.043,141.56 752.5,141.5C 744.302,137.923 737.968,132.256 733.5,124.5C 732.731,121.885 732.397,119.219 732.5,116.5C 731.182,86.4811 731.182,56.4811 732.5,26.5C 733.767,21.39 736.767,17.5566 741.5,15C 749.721,10.9346 758.387,9.60131 767.5,11C 813.671,26.7055 860.005,42.0389 906.5,57C 910.275,58.6114 913.275,61.1114 915.5,64.5 Z"/></g>
<g><path style="opacity:1" fill="#a4b4e9" d="M 488.5,165.5 C 488.129,140.668 487.795,115.835 487.5,91C 487.393,75.4667 487.893,59.9667 489,44.5C 492.707,33.4614 499.874,25.628 510.5,21C 511.738,20.31 511.738,19.81 510.5,19.5C 513.9,17.915 517.567,16.7483 521.5,16C 539.265,14.8432 556.932,15.5099 574.5,18C 576.002,18.5831 577.335,19.4164 578.5,20.5C 568.289,21.9701 558.623,25.1368 549.5,30C 544.441,34.0679 540.941,39.2346 539,45.5C 538.667,78.8333 538.333,112.167 538,145.5C 524.543,150.146 511.043,154.646 497.5,159C 494.862,161.654 491.862,163.82 488.5,165.5 Z"/></g>
<g><path style="opacity:1" fill="#fefefe" d="M 510.5,19.5 C 511.738,19.81 511.738,20.31 510.5,21C 499.874,25.628 492.707,33.4614 489,44.5C 487.893,59.9667 487.393,75.4667 487.5,91C 487.795,115.835 488.129,140.668 488.5,165.5C 404.608,192.077 320.941,218.91 237.5,246C 223.917,252.737 214.917,263.237 210.5,277.5C 209.698,278.952 209.198,280.618 209,282.5C 208.333,347.833 208.333,413.167 209,478.5C 209.198,480.382 209.698,482.048 210.5,483.5C 214.228,496.396 221.895,506.229 233.5,513C 239.659,515.79 245.992,518.124 252.5,520C 330.809,521.476 409.142,521.976 487.5,521.5C 487.333,549.169 487.5,576.835 488,604.5C 489.843,619 496.676,630.5 508.5,639C 515.173,641.67 521.506,644.837 527.5,648.5C 397.166,648.667 266.833,648.5 136.5,648C 108.189,644.633 83.8553,633.133 63.5,613.5C 60.1112,609.285 56.9445,604.952 54,600.5C 53.2952,597.524 52.1286,594.858 50.5,592.5C 49.648,587.773 48.4813,583.106 47,578.5C 46.3333,457.833 46.3333,337.167 47,216.5C 48.7348,212.655 49.9015,208.655 50.5,204.5C 53.0779,198.042 56.5779,192.042 61,186.5C 66.1983,180.967 71.6983,175.8 77.5,171C 83.5,167.333 89.5,163.667 95.5,160C 106.255,156.738 116.922,153.238 127.5,149.5C 129.403,149.204 131.07,148.537 132.5,147.5C 256.098,105.133 379.764,62.633 503.5,20C 505.81,19.5034 508.143,19.3367 510.5,19.5 Z"/></g>
<g><path style="opacity:1" fill="#344683" d="M 789.5,54.5 C 795.319,54.2763 800.985,55.1096 806.5,57C 827.469,64.2464 848.803,70.5797 870.5,76C 873.952,77.2257 877.285,78.7257 880.5,80.5C 881.298,80.9569 881.631,81.6236 881.5,82.5C 881.333,106.836 881.5,131.169 882,155.5C 882.232,156.737 882.732,157.737 883.5,158.5C 884.674,168.011 889.674,174.678 898.5,178.5C 898.5,179.167 898.5,179.833 898.5,180.5C 888.684,180.509 880.518,176.842 874,169.5C 872.007,167.182 870.841,164.516 870.5,161.5C 869.98,146.673 869.313,132.006 868.5,117.5C 868.167,117.5 867.833,117.5 867.5,117.5C 841.535,107.826 815.201,98.9927 788.5,91C 787.944,90.6174 787.611,90.1174 787.5,89.5C 786.926,77.6507 787.592,65.984 789.5,54.5 Z"/></g>
<g><path style="opacity:1" fill="#7f7f7f" d="M 786.5,57.5 C 786.5,67.8333 786.5,78.1667 786.5,88.5C 785.883,88.3893 785.383,88.056 785,87.5C 784.333,78.5 784.333,69.5 785,60.5C 785.232,59.2625 785.732,58.2625 786.5,57.5 Z"/></g>
<g><path style="opacity:1" fill="#414966" d="M 789.5,54.5 C 787.592,65.984 786.926,77.6507 787.5,89.5C 786.833,89.5 786.5,89.1667 786.5,88.5C 786.5,78.1667 786.5,67.8333 786.5,57.5C 786.5,55.5 787.5,54.5 789.5,54.5 Z"/></g>
<g><path style="opacity:1" fill="#4e5a83" d="M 714.5,66.5 C 715.496,66.4142 716.329,66.7476 717,67.5C 717.244,86.8501 717.744,106.183 718.5,125.5C 717.698,124.048 717.198,122.382 717,120.5C 716.667,103.167 716.333,85.8333 716,68.5C 715.283,67.9558 714.783,67.2891 714.5,66.5 Z"/></g>
<g><path style="opacity:1" fill="#e2e3e5" d="M 915.5,64.5 C 917.61,65.4525 918.777,67.1192 919,69.5C 919.188,91.8761 919.688,114.209 920.5,136.5C 919.883,136.389 919.383,136.056 919,135.5C 918.667,113.833 918.333,92.1667 918,70.5C 917.345,68.3716 916.511,66.3716 915.5,64.5 Z"/></g>
<g><path style="opacity:1" fill="#4a5680" d="M 732.5,26.5 C 731.182,56.4811 731.182,86.4811 732.5,116.5C 731.732,115.737 731.232,114.737 731,113.5C 730.333,84.8333 730.333,56.1667 731,27.5C 731.383,26.944 731.883,26.6107 732.5,26.5 Z"/></g>
<g><path style="opacity:1" fill="#c7c7c7" d="M 867.5,117.5 C 867.833,117.5 868.167,117.5 868.5,117.5C 868.2,132.215 868.533,146.882 869.5,161.5C 868.883,161.389 868.383,161.056 868,160.5C 867.5,146.171 867.333,131.837 867.5,117.5 Z"/></g>
<g><path style="opacity:1" fill="#49506a" d="M 868.5,117.5 C 869.313,132.006 869.98,146.673 870.5,161.5C 870.167,161.5 869.833,161.5 869.5,161.5C 868.533,146.882 868.2,132.215 868.5,117.5 Z"/></g>
<g><path style="opacity:0.945" fill="#5b617a" d="M 881.5,82.5 C 882.222,82.9175 882.722,83.5842 883,84.5C 883.5,109.164 883.667,133.831 883.5,158.5C 882.732,157.737 882.232,156.737 882,155.5C 881.5,131.169 881.333,106.836 881.5,82.5 Z"/></g>
<g><path style="opacity:1" fill="#8e8e8e" d="M 752.5,141.5 C 753.043,141.56 753.376,141.893 753.5,142.5C 750.691,143.8 748.024,143.8 745.5,142.5C 748.059,142.802 750.393,142.468 752.5,141.5 Z"/></g>
<g><path style="opacity:1" fill="#9098b6" d="M 132.5,147.5 C 131.07,148.537 129.403,149.204 127.5,149.5C 128.635,147.787 130.302,147.12 132.5,147.5 Z"/></g>
<g><path style="opacity:1" fill="#57585f" d="M 898.5,178.5 C 899.995,178.415 900.995,179.081 901.5,180.5C 900.386,181.776 899.386,181.776 898.5,180.5C 898.5,179.833 898.5,179.167 898.5,178.5 Z"/></g>
<g><path style="opacity:1" fill="#8c94ae" d="M 1028.5,189.5 C 1029.91,189.973 1030.57,190.973 1030.5,192.5C 1029.09,192.027 1028.43,191.027 1028.5,189.5 Z"/></g>
<g><path style="opacity:1" fill="#334683" d="M 833.5,216.5 C 835.102,218.074 837.102,218.741 839.5,218.5C 850.685,221.965 862.018,225.131 873.5,228C 879.504,229.581 885.171,231.914 890.5,235C 893.433,237.264 895.6,240.098 897,243.5C 897.499,248.823 897.666,254.156 897.5,259.5C 895.895,269.287 895.228,279.287 895.5,289.5C 894.944,295.225 891.944,299.058 886.5,301C 877.265,303.93 867.932,304.264 858.5,302C 830.298,294.229 801.964,287.229 773.5,281C 768.604,279.085 763.604,277.418 758.5,276C 754.26,273.262 750.926,269.762 748.5,265.5C 748.423,247.49 748.757,229.49 749.5,211.5C 749.933,208.805 751.266,206.638 753.5,205C 759.172,202.053 765.172,200.22 771.5,199.5C 792.155,205.143 812.822,210.81 833.5,216.5 Z"/></g>
<g><path style="opacity:1" fill="#979eb4" d="M 1033.5,199.5 C 1035.12,202.171 1035.78,205.171 1035.5,208.5C 1034.34,205.727 1033.68,202.727 1033.5,199.5 Z"/></g>
<g><path style="opacity:1" fill="#495680" d="M 1035.5,212.5 C 1036.27,213.263 1036.77,214.263 1037,215.5C 1037.67,243.833 1037.67,272.167 1037,300.5C 1035.06,301.807 1033.22,301.807 1031.5,300.5C 1033.14,300.714 1034.64,300.38 1036,299.5C 1036.8,270.477 1036.63,241.477 1035.5,212.5 Z"/></g>
<g><path style="opacity:1" fill="#a2a7ba" d="M 833.5,216.5 C 835.898,216.259 837.898,216.926 839.5,218.5C 837.102,218.741 835.102,218.074 833.5,216.5 Z"/></g>
<g><path style="opacity:1" fill="#667090" d="M 50.5,204.5 C 49.9015,208.655 48.7348,212.655 47,216.5C 46.3333,337.167 46.3333,457.833 47,578.5C 48.4813,583.106 49.648,587.773 50.5,592.5C 49.8826,592.389 49.3826,592.056 49,591.5C 48.2055,587.45 47.2055,583.45 46,579.5C 45.3333,458.167 45.3333,336.833 46,215.5C 47.6047,212.352 48.6047,209.019 49,205.5C 49.3826,204.944 49.8826,204.611 50.5,204.5 Z"/></g>
<g><path style="opacity:1" fill="#acacac" d="M 749.5,211.5 C 748.757,229.49 748.423,247.49 748.5,265.5C 747.834,256.673 747.5,247.673 747.5,238.5C 747.502,229.141 748.168,220.141 749.5,211.5 Z"/></g>
<g><path style="opacity:1" fill="#787878" d="M 897.5,259.5 C 897.406,269.689 896.739,279.689 895.5,289.5C 895.228,279.287 895.895,269.287 897.5,259.5 Z"/></g>
<g><path style="opacity:1" fill="#a5aaba" d="M 210.5,277.5 C 209.167,346.167 209.167,414.833 210.5,483.5C 209.698,482.048 209.198,480.382 209,478.5C 208.333,413.167 208.333,347.833 209,282.5C 209.198,280.618 209.698,278.952 210.5,277.5 Z"/></g>
<g><path style="opacity:1" fill="#576389" d="M 911.5,259.5 C 910.034,272.746 909.034,286.079 908.5,299.5C 907.839,297.866 907.506,296.033 907.5,294C 908.104,286.841 908.604,279.674 909,272.5C 908.892,267.72 909.725,263.386 911.5,259.5 Z"/></g>
<g><path style="opacity:1" fill="#45527d" d="M 1036.5,348.5 C 1037.67,428.666 1037.83,508.999 1037,589.5C 1036.81,593.767 1035.98,597.767 1034.5,601.5C 1035.08,597.19 1035.41,592.857 1035.5,588.5C 1036.5,508.668 1036.83,428.668 1036.5,348.5 Z"/></g>
<g><path style="opacity:1" fill="#cececf" d="M 1034.5,345.5 C 1035.91,345.973 1036.57,346.973 1036.5,348.5C 1036.83,428.668 1036.5,508.668 1035.5,588.5C 1035.83,507.459 1035.49,426.459 1034.5,345.5 Z"/></g>
<g><path style="opacity:1" fill="#a4b4e9" d="M 487.5,521.5 C 503.837,521.333 520.17,521.5 536.5,522C 537,522.5 537.5,523 538,523.5C 538.333,542.5 538.667,561.5 539,580.5C 543.186,605.75 556.686,623.917 579.5,635C 593.051,639.636 606.718,643.803 620.5,647.5C 589.507,648.5 558.507,648.833 527.5,648.5C 521.506,644.837 515.173,641.67 508.5,639C 496.676,630.5 489.843,619 488,604.5C 487.5,576.835 487.333,549.169 487.5,521.5 Z"/></g>
<g><path style="opacity:1" fill="#7b84a6" d="M 976.5,646.5 C 974.562,648.163 972.228,648.829 969.5,648.5C 971.599,647.388 973.933,646.721 976.5,646.5 Z"/></g>
<g><path style="opacity:1" fill="#283c7e" d="M 739.5,648.5 C 742.5,648.5 745.5,648.5 748.5,648.5C 818.999,649.333 889.665,649.833 960.5,650C 887.833,650.667 815.167,650.667 742.5,650C 739.833,649.667 737.167,649.333 734.5,649C 736.134,648.506 737.801,648.34 739.5,648.5 Z"/></g>
</svg>
